<svg viewBox="0 0 498 498"
    xmlns="http://www.w3.org/2000/svg">
    <path fill-rule="evenodd" clip-rule="evenodd" d="M392.238 451.245C504.2 371.872 530.618 216.764 451.245 104.802C371.872 -7.15965 216.764 -33.5782 104.802 45.795C-7.15966 125.168 -33.5782 280.276 45.7949 392.238C125.168 504.2 280.276 530.618 392.238 451.245ZM266.374 100.278C277.104 93.6897 290.174 104.197 286.046 116.092L224.202 289.541L109.309 247.723C88.2346 240.053 85.3402 211.434 104.452 199.699L266.374 100.278ZM228.781 395.929C218.052 402.516 204.981 392.01 209.11 380.115L269.498 206.136L385.846 248.483C406.92 256.154 409.814 284.772 390.703 296.507L228.781 395.929Z" />
</svg>
