<svg viewBox="0 0 2213 627"
    xmlns="http://www.w3.org/2000/svg">
    <path d="M648.92 268.656C648.92 250.736 665.304 241.52 686.296 241.52C709.336 241.52 725.72 251.248 734.424 270.704L781.016 244.592C763.096 211.312 728.792 191.344 686.296 191.344C659.672 191.344 637.144 198.512 619.224 212.848C601.304 227.184 592.6 246.128 592.6 269.68C591.576 323.44 643.288 338.8 681.688 348.528C708.824 355.184 730.328 364.912 730.328 381.296C730.328 400.24 715.992 409.968 686.808 409.968C657.624 409.968 638.68 397.68 629.976 373.104L582.36 400.752C598.744 438.128 636.12 460.656 686.808 460.656C715.48 460.656 739.032 453.488 757.976 439.664C776.92 425.84 786.648 406.384 786.648 381.808C787.672 327.024 736.472 310.64 697.048 301.936C670.424 294.256 648.92 285.552 648.92 268.656ZM853.76 149.36C868.096 135.024 868.096 113.52 854.272 99.696C840.448 85.36 817.92 85.36 804.096 99.696C790.272 113.52 790.272 135.024 804.096 149.36C818.432 163.184 839.936 163.184 853.76 149.36ZM856.832 454V198H801.536V454H856.832ZM1033.16 198H969.676V126.32L914.38 142.704V198H867.276V251.248H914.38V374.128C914.38 441.2 948.684 464.24 1033.16 454V404.336C991.18 406.384 969.676 406.896 969.676 374.128V251.248H1033.16V198ZM1289.39 349.552C1290.93 339.824 1291.44 332.144 1291.44 326.512C1291.44 289.136 1279.15 256.88 1255.09 230.768C1231.02 204.656 1200.3 191.344 1162.93 191.344C1123.5 191.344 1090.74 204.144 1065.65 230.256C1040.56 255.856 1027.76 287.6 1027.76 326C1027.76 364.912 1040.56 397.168 1066.16 422.768C1091.76 447.856 1125.55 460.656 1167.02 460.656C1216.69 460.656 1254.06 442.224 1279.15 404.848L1233.58 378.224C1218.74 399.216 1196.72 409.968 1167.54 409.968C1125.04 409.968 1093.81 388.464 1085.62 349.552H1289.39ZM1085.1 304.496C1092.78 265.584 1121.46 241.52 1162.42 241.52C1198.77 241.52 1227.95 263.024 1235.63 304.496H1085.1ZM1454.27 191.344C1415.36 191.344 1385.66 205.68 1364.67 234.864V198H1309.38V556.4H1364.67V417.648C1385.66 446.32 1415.36 460.656 1454.27 460.656C1489.6 460.656 1519.3 447.856 1544.38 421.744C1569.47 395.632 1581.76 363.888 1581.76 326C1581.76 288.624 1569.47 256.88 1544.38 230.768C1519.3 204.656 1489.6 191.344 1454.27 191.344ZM1387.71 384.88C1372.35 369.008 1364.67 349.552 1364.67 326C1364.67 302.448 1372.35 282.992 1387.71 267.632C1403.07 251.76 1422.53 244.08 1445.57 244.08C1468.61 244.08 1488.06 251.76 1503.42 267.632C1518.78 282.992 1526.46 302.448 1526.46 326C1526.46 349.552 1518.78 369.008 1503.42 384.88C1488.06 400.24 1468.61 407.92 1445.57 407.92C1422.53 407.92 1403.07 400.24 1387.71 384.88ZM1653.38 149.36C1667.72 135.024 1667.72 113.52 1653.89 99.696C1640.07 85.36 1617.54 85.36 1603.72 99.696C1589.89 113.52 1589.89 135.024 1603.72 149.36C1618.05 163.184 1639.56 163.184 1653.38 149.36ZM1656.45 454V198H1601.16V454H1656.45ZM1745.23 454V80.24H1689.94V454H1745.23ZM1899.55 460.656C1937.44 460.656 1969.18 447.856 1995.29 421.744C2021.4 395.632 2034.72 363.888 2034.72 326C2034.72 288.112 2021.4 256.368 1995.29 230.256C1969.18 204.144 1937.44 191.344 1899.55 191.344C1862.17 191.344 1829.92 204.144 1803.8 230.256C1777.69 256.368 1764.38 288.112 1764.38 326C1764.38 363.888 1777.69 395.632 1803.8 421.744C1829.92 447.856 1862.17 460.656 1899.55 460.656ZM1842.72 383.856C1827.36 368.496 1819.68 349.04 1819.68 326C1819.68 302.96 1827.36 283.504 1842.72 268.144C1858.08 252.784 1877.02 245.104 1899.55 245.104C1922.08 245.104 1941.02 252.784 1956.38 268.144C1971.74 283.504 1979.42 302.96 1979.42 326C1979.42 349.04 1971.74 368.496 1956.38 383.856C1941.02 399.216 1922.08 406.896 1899.55 406.896C1877.02 406.896 1858.08 399.216 1842.72 383.856ZM2191.84 198H2128.36V126.32L2073.06 142.704V198H2025.96V251.248H2073.06V374.128C2073.06 441.2 2107.36 464.24 2191.84 454V404.336C2149.86 406.384 2128.36 406.896 2128.36 374.128V251.248H2191.84V198Z" />
    <path fill-rule="evenodd" clip-rule="evenodd" d="M392.238 516.245C504.2 436.872 530.618 281.764 451.245 169.802C371.872 57.8403 216.764 31.4218 104.802 110.795C-7.15966 190.168 -33.5782 345.276 45.7949 457.238C125.168 569.2 280.276 595.618 392.238 516.245ZM266.374 165.278C277.104 158.69 290.174 169.197 286.046 181.092L224.202 354.541L109.309 312.723C88.2346 305.053 85.3402 276.434 104.452 264.699L266.374 165.278ZM228.781 460.929C218.052 467.516 204.981 457.01 209.11 445.115L269.498 271.136L385.846 313.483C406.92 321.154 409.814 349.772 390.703 361.507L228.781 460.929Z" />
</svg>
